<mxfile host="app.diagrams.net" modified="2023-06-02T15:53:53.872Z" agent="Mozilla/5.0 (Windows NT 10.0; Win64; x64; rv:109.0) Gecko/20100101 Firefox/113.0" etag="ZkpZU0QbmmNyMX0J8ioT" version="21.3.7" type="device">
  <diagram name="PÃ¡gina-1" id="eLD0JIjX6mOt4U_HHWyt">
    <mxGraphModel dx="2284" dy="754" grid="1" gridSize="10" guides="1" tooltips="1" connect="1" arrows="1" fold="1" page="1" pageScale="1" pageWidth="850" pageHeight="1100" math="0" shadow="1">
      <root>
        <mxCell id="0" />
        <mxCell id="1" parent="0" />
        <mxCell id="gQ0CatiDxehJLlMZtBQq-3" value="" style="edgeStyle=orthogonalEdgeStyle;rounded=0;orthogonalLoop=1;jettySize=auto;html=1;labelBackgroundColor=none;strokeColor=#23445D;fontColor=default;" edge="1" parent="1" source="gQ0CatiDxehJLlMZtBQq-1" target="gQ0CatiDxehJLlMZtBQq-2">
          <mxGeometry relative="1" as="geometry" />
        </mxCell>
        <mxCell id="gQ0CatiDxehJLlMZtBQq-1" value="inicio" style="ellipse;whiteSpace=wrap;html=1;labelBackgroundColor=none;fillColor=#182E3E;strokeColor=#FFFFFF;fontColor=#FFFFFF;" vertex="1" parent="1">
          <mxGeometry x="390" y="10" width="120" height="80" as="geometry" />
        </mxCell>
        <mxCell id="gQ0CatiDxehJLlMZtBQq-5" value="" style="edgeStyle=orthogonalEdgeStyle;rounded=0;orthogonalLoop=1;jettySize=auto;html=1;labelBackgroundColor=none;strokeColor=#23445D;fontColor=default;" edge="1" parent="1" source="gQ0CatiDxehJLlMZtBQq-2" target="gQ0CatiDxehJLlMZtBQq-4">
          <mxGeometry relative="1" as="geometry" />
        </mxCell>
        <mxCell id="gQ0CatiDxehJLlMZtBQq-2" value="num (int)" style="whiteSpace=wrap;html=1;labelBackgroundColor=none;fillColor=#182E3E;strokeColor=#FFFFFF;fontColor=#FFFFFF;" vertex="1" parent="1">
          <mxGeometry x="390" y="120" width="120" height="60" as="geometry" />
        </mxCell>
        <mxCell id="gQ0CatiDxehJLlMZtBQq-26" value="" style="edgeStyle=orthogonalEdgeStyle;rounded=0;sketch=1;hachureGap=4;jiggle=2;curveFitting=1;orthogonalLoop=1;jettySize=auto;html=1;strokeColor=#23445D;fontFamily=Architects Daughter;fontSource=https%3A%2F%2Ffonts.googleapis.com%2Fcss%3Ffamily%3DArchitects%2BDaughter;fontSize=16;" edge="1" parent="1" source="gQ0CatiDxehJLlMZtBQq-4" target="gQ0CatiDxehJLlMZtBQq-25">
          <mxGeometry relative="1" as="geometry" />
        </mxCell>
        <mxCell id="gQ0CatiDxehJLlMZtBQq-4" value="&quot; Ingresa un numero&quot;" style="shape=document;whiteSpace=wrap;html=1;boundedLbl=1;labelBackgroundColor=none;fillColor=#182E3E;strokeColor=#FFFFFF;fontColor=#FFFFFF;" vertex="1" parent="1">
          <mxGeometry x="390" y="230" width="120" height="80" as="geometry" />
        </mxCell>
        <mxCell id="gQ0CatiDxehJLlMZtBQq-12" value="" style="edgeStyle=orthogonalEdgeStyle;rounded=0;orthogonalLoop=1;jettySize=auto;html=1;labelBackgroundColor=none;strokeColor=#23445D;fontColor=default;entryX=0.5;entryY=0;entryDx=0;entryDy=0;" edge="1" parent="1" source="gQ0CatiDxehJLlMZtBQq-6" target="gQ0CatiDxehJLlMZtBQq-24">
          <mxGeometry relative="1" as="geometry">
            <mxPoint x="351" y="600" as="targetPoint" />
            <Array as="points">
              <mxPoint x="351" y="580" />
            </Array>
          </mxGeometry>
        </mxCell>
        <mxCell id="gQ0CatiDxehJLlMZtBQq-15" value="si" style="edgeLabel;html=1;align=center;verticalAlign=middle;resizable=0;points=[];labelBackgroundColor=none;fontColor=#FFFFFF;" vertex="1" connectable="0" parent="gQ0CatiDxehJLlMZtBQq-12">
          <mxGeometry x="-0.0828" y="-1" relative="1" as="geometry">
            <mxPoint as="offset" />
          </mxGeometry>
        </mxCell>
        <mxCell id="gQ0CatiDxehJLlMZtBQq-14" value="" style="edgeStyle=orthogonalEdgeStyle;rounded=0;orthogonalLoop=1;jettySize=auto;html=1;labelBackgroundColor=none;strokeColor=#23445D;fontColor=default;entryX=0.383;entryY=-0.05;entryDx=0;entryDy=0;entryPerimeter=0;" edge="1" parent="1" source="gQ0CatiDxehJLlMZtBQq-6" target="gQ0CatiDxehJLlMZtBQq-18">
          <mxGeometry relative="1" as="geometry">
            <mxPoint x="-219" y="570" as="targetPoint" />
          </mxGeometry>
        </mxCell>
        <mxCell id="gQ0CatiDxehJLlMZtBQq-16" value="no" style="edgeLabel;html=1;align=center;verticalAlign=middle;resizable=0;points=[];labelBackgroundColor=none;fontColor=#FFFFFF;" vertex="1" connectable="0" parent="gQ0CatiDxehJLlMZtBQq-14">
          <mxGeometry x="-0.1161" y="-4" relative="1" as="geometry">
            <mxPoint as="offset" />
          </mxGeometry>
        </mxCell>
        <mxCell id="gQ0CatiDxehJLlMZtBQq-6" value="num &amp;gt; 0" style="rhombus;whiteSpace=wrap;html=1;labelBackgroundColor=none;fillColor=#182E3E;strokeColor=#FFFFFF;fontColor=#FFFFFF;" vertex="1" parent="1">
          <mxGeometry x="31" y="530" width="100" height="100" as="geometry" />
        </mxCell>
        <mxCell id="gQ0CatiDxehJLlMZtBQq-35" style="edgeStyle=orthogonalEdgeStyle;rounded=0;sketch=1;hachureGap=4;jiggle=2;curveFitting=1;orthogonalLoop=1;jettySize=auto;html=1;entryX=0.033;entryY=0.65;entryDx=0;entryDy=0;entryPerimeter=0;strokeColor=#23445D;fontFamily=Architects Daughter;fontSource=https%3A%2F%2Ffonts.googleapis.com%2Fcss%3Ffamily%3DArchitects%2BDaughter;fontSize=16;" edge="1" parent="1" source="gQ0CatiDxehJLlMZtBQq-18" target="gQ0CatiDxehJLlMZtBQq-19">
          <mxGeometry relative="1" as="geometry">
            <Array as="points">
              <mxPoint x="-199" y="900" />
              <mxPoint x="444" y="900" />
            </Array>
          </mxGeometry>
        </mxCell>
        <mxCell id="gQ0CatiDxehJLlMZtBQq-18" value="&quot; El numero es negativo&quot;" style="shape=document;whiteSpace=wrap;html=1;boundedLbl=1;labelBackgroundColor=none;fillColor=#182E3E;strokeColor=#FFFFFF;fontColor=#FFFFFF;" vertex="1" parent="1">
          <mxGeometry x="-259" y="650" width="120" height="80" as="geometry" />
        </mxCell>
        <mxCell id="gQ0CatiDxehJLlMZtBQq-19" value="fin" style="ellipse;whiteSpace=wrap;html=1;labelBackgroundColor=none;fillColor=#182E3E;strokeColor=#FFFFFF;fontColor=#FFFFFF;" vertex="1" parent="1">
          <mxGeometry x="440" y="870" width="120" height="80" as="geometry" />
        </mxCell>
        <mxCell id="gQ0CatiDxehJLlMZtBQq-36" style="edgeStyle=orthogonalEdgeStyle;rounded=0;sketch=1;hachureGap=4;jiggle=2;curveFitting=1;orthogonalLoop=1;jettySize=auto;html=1;entryX=0.5;entryY=0;entryDx=0;entryDy=0;strokeColor=#23445D;fontFamily=Architects Daughter;fontSource=https%3A%2F%2Ffonts.googleapis.com%2Fcss%3Ffamily%3DArchitects%2BDaughter;fontSize=16;" edge="1" parent="1" source="gQ0CatiDxehJLlMZtBQq-24" target="gQ0CatiDxehJLlMZtBQq-19">
          <mxGeometry relative="1" as="geometry" />
        </mxCell>
        <mxCell id="gQ0CatiDxehJLlMZtBQq-24" value="&quot; El numero es positivo &quot;" style="shape=document;whiteSpace=wrap;html=1;boundedLbl=1;labelBackgroundColor=none;fillColor=#182E3E;strokeColor=#FFFFFF;fontColor=#FFFFFF;" vertex="1" parent="1">
          <mxGeometry x="290" y="670" width="120" height="80" as="geometry" />
        </mxCell>
        <mxCell id="gQ0CatiDxehJLlMZtBQq-31" value="" style="edgeStyle=orthogonalEdgeStyle;rounded=0;sketch=1;hachureGap=4;jiggle=2;curveFitting=1;orthogonalLoop=1;jettySize=auto;html=1;strokeColor=#23445D;fontFamily=Architects Daughter;fontSource=https%3A%2F%2Ffonts.googleapis.com%2Fcss%3Ffamily%3DArchitects%2BDaughter;fontSize=16;" edge="1" parent="1" source="gQ0CatiDxehJLlMZtBQq-25" target="gQ0CatiDxehJLlMZtBQq-29">
          <mxGeometry relative="1" as="geometry" />
        </mxCell>
        <mxCell id="gQ0CatiDxehJLlMZtBQq-25" value="num" style="shape=parallelogram;perimeter=parallelogramPerimeter;whiteSpace=wrap;html=1;fixedSize=1;sketch=1;hachureGap=4;jiggle=2;curveFitting=1;strokeColor=#FFFFFF;fontFamily=Architects Daughter;fontSource=https%3A%2F%2Ffonts.googleapis.com%2Fcss%3Ffamily%3DArchitects%2BDaughter;fontSize=20;fontColor=#FFFFFF;fillColor=#182E3E;" vertex="1" parent="1">
          <mxGeometry x="390" y="340" width="120" height="60" as="geometry" />
        </mxCell>
        <mxCell id="gQ0CatiDxehJLlMZtBQq-32" style="edgeStyle=orthogonalEdgeStyle;rounded=0;sketch=1;hachureGap=4;jiggle=2;curveFitting=1;orthogonalLoop=1;jettySize=auto;html=1;strokeColor=#23445D;fontFamily=Architects Daughter;fontSource=https%3A%2F%2Ffonts.googleapis.com%2Fcss%3Ffamily%3DArchitects%2BDaughter;fontSize=16;" edge="1" parent="1" source="gQ0CatiDxehJLlMZtBQq-29" target="gQ0CatiDxehJLlMZtBQq-6">
          <mxGeometry relative="1" as="geometry" />
        </mxCell>
        <mxCell id="gQ0CatiDxehJLlMZtBQq-33" style="edgeStyle=orthogonalEdgeStyle;rounded=0;sketch=1;hachureGap=4;jiggle=2;curveFitting=1;orthogonalLoop=1;jettySize=auto;html=1;entryX=0.5;entryY=0;entryDx=0;entryDy=0;strokeColor=#23445D;fontFamily=Architects Daughter;fontSource=https%3A%2F%2Ffonts.googleapis.com%2Fcss%3Ffamily%3DArchitects%2BDaughter;fontSize=16;" edge="1" parent="1" source="gQ0CatiDxehJLlMZtBQq-29" target="gQ0CatiDxehJLlMZtBQq-30">
          <mxGeometry relative="1" as="geometry" />
        </mxCell>
        <mxCell id="gQ0CatiDxehJLlMZtBQq-29" value="num==0" style="rhombus;whiteSpace=wrap;html=1;sketch=1;hachureGap=4;jiggle=2;curveFitting=1;strokeColor=#FFFFFF;fontFamily=Architects Daughter;fontSource=https%3A%2F%2Ffonts.googleapis.com%2Fcss%3Ffamily%3DArchitects%2BDaughter;fontSize=20;fontColor=#FFFFFF;fillColor=#182E3E;" vertex="1" parent="1">
          <mxGeometry x="410" y="440" width="80" height="80" as="geometry" />
        </mxCell>
        <mxCell id="gQ0CatiDxehJLlMZtBQq-34" style="edgeStyle=orthogonalEdgeStyle;rounded=0;sketch=1;hachureGap=4;jiggle=2;curveFitting=1;orthogonalLoop=1;jettySize=auto;html=1;entryX=1;entryY=0.5;entryDx=0;entryDy=0;strokeColor=#23445D;fontFamily=Architects Daughter;fontSource=https%3A%2F%2Ffonts.googleapis.com%2Fcss%3Ffamily%3DArchitects%2BDaughter;fontSize=16;" edge="1" parent="1" source="gQ0CatiDxehJLlMZtBQq-30" target="gQ0CatiDxehJLlMZtBQq-19">
          <mxGeometry relative="1" as="geometry">
            <Array as="points">
              <mxPoint x="820" y="910" />
            </Array>
          </mxGeometry>
        </mxCell>
        <mxCell id="gQ0CatiDxehJLlMZtBQq-30" value="&quot; El cero es neutro &quot;" style="shape=document;whiteSpace=wrap;html=1;boundedLbl=1;sketch=1;hachureGap=4;jiggle=2;curveFitting=1;strokeColor=#FFFFFF;fontFamily=Architects Daughter;fontSource=https%3A%2F%2Ffonts.googleapis.com%2Fcss%3Ffamily%3DArchitects%2BDaughter;fontSize=20;fontColor=#FFFFFF;fillColor=#182E3E;" vertex="1" parent="1">
          <mxGeometry x="760" y="560" width="120" height="80" as="geometry" />
        </mxCell>
      </root>
    </mxGraphModel>
  </diagram>
</mxfile>
